<?xml version="1.0" encoding="UTF-8" standalone="no"?>
<svg width="357px" height="138px" viewBox="0 0 357 138" version="1.1" xmlns="http://www.w3.org/2000/svg" xmlns:xlink="http://www.w3.org/1999/xlink" xmlns:sketch="http://www.bohemiancoding.com/sketch/ns">
    <!-- Generator: Sketch 3.3 (11970) - http://www.bohemiancoding.com/sketch -->
    <title>makae</title>
    <desc>Created with Sketch.</desc>
    <defs></defs>
    <g id="Page-1" stroke="none" stroke-width="1" fill="none" fill-rule="evenodd" sketch:type="MSPage">
        <path d="M305.00096,83.8893006 C304.618403,84.7216008 304.21275,85.5665001 303.784,86.424 C301.959991,90.0720182 299.718013,93.3779852 297.058,96.342 C294.397987,99.3060148 291.396017,100.788 288.052,100.788 C285.771989,100.788 283.454012,99.8380095 281.098,97.938 C278.741988,96.0379905 277.032005,92.7320236 275.968,88.02 C275.359997,88.7800038 274.638004,89.6539951 273.802,90.642 C272.965996,91.6300049 271.902006,92.5419958 270.61,93.378 C269.317994,94.2140042 267.798009,94.935997 266.05,95.544 C264.898821,95.9444099 263.566366,96.2129698 262.052615,96.3496821 C265.110526,97.0561586 268.190969,97.9655928 271.294,99.078 C275.32202,100.522007 278.855985,102.383989 281.896,104.664 C286.152021,108.160017 288.28,112.415975 288.28,117.432 C288.28,118.496005 287.824005,119.635994 286.912,120.852 C285.999995,122.068006 283.56802,122.676 279.616,122.676 C277.943992,122.676 275.930012,122.486002 273.574,122.106 C271.217988,121.725998 268.482016,120.852007 265.366,119.484 C262.249984,118.115993 258.754019,116.216012 254.878,113.784 C251.001981,111.351988 246.784023,108.084021 242.224,103.98 C241.767998,103.675998 241.388002,103.448001 241.084,103.296 C240.779998,103.143999 240.248004,103.068 239.488,103.068 C238.119993,103.068 236.296011,103.295998 234.016,103.752 C231.735989,104.208002 228.468021,104.967995 224.212,106.032 C219.955979,107.096005 214.522033,108.501991 207.91,110.25 C201.297967,111.998009 192.97605,114.163987 182.944,116.748 C182.944,116.900001 181.120018,117.545994 177.472,118.686 C173.823982,119.826006 169.03603,121.193992 163.108,122.79 C157.17997,124.386008 150.416038,126.057991 142.816,127.806 C135.215962,129.554009 127.42604,131.149993 119.446,132.594 C111.46596,134.038007 103.600039,135.253995 95.848,136.242 C88.0959612,137.230005 81.1040312,137.724 74.872,137.724 C71.679984,137.724 67.4240266,137.572002 62.104,137.268 C56.7839734,136.963998 51.0460308,136.242006 44.89,135.102 C38.7339692,133.961994 32.5780308,132.290011 26.422,130.086 C20.2659692,127.881989 14.6800251,124.956018 9.664,121.308 C7.83999088,120.243995 6.24400684,118.876008 4.876,117.204 C3.65999392,115.835993 2.59600456,114.240009 1.684,112.416 C0.77199544,110.591991 0.316,108.388013 0.316,105.804 C0.316,103.979991 0.61999696,102.156009 1.228,100.332 C5.18001976,104.132019 10.4999666,107.475986 17.188,110.364 C22.9640289,112.948013 30.5259533,115.26599 39.874,117.318 C49.2220467,119.37001 60.9639293,120.396 75.1,120.396 C83.0040395,120.396 91.6679529,119.940005 101.092,119.028 C109.300041,118.267996 117.887955,117.204007 126.856,115.836 C134.608039,114.619994 143.157953,113.138009 152.506,111.39 C161.854047,109.641991 171.163954,107.476013 180.436,104.892 C181.348005,104.739999 183.361984,104.208005 186.478,103.296 C189.594016,102.383995 193.431977,101.358006 197.992,100.218 C202.552023,99.0779943 207.643972,97.9380057 213.268,96.798 C218.892028,95.6579943 224.591971,94.7080038 230.368,93.948 C226.871983,90.6039833 223.946012,87.336016 221.59,84.144 C219.233988,80.951984 217.296008,78.0640129 215.776,75.48 C213.495989,79.1280182 211.710006,82.2819867 210.418,84.942 C209.125994,87.6020133 208.024005,89.7679916 207.112,91.44 C206.199995,93.1120084 205.250005,94.3659958 204.262,95.202 C203.273995,96.0380042 201.79201,96.456 199.816,96.456 C199.055996,96.456 198.258004,96.3800008 197.422,96.228 C196.585996,96.0759992 195.750004,95.6580034 194.914,94.974 C194.077996,94.2899966 193.394003,93.1880076 192.862,91.668 C192.652298,91.0688513 192.483926,90.3870481 192.356884,89.6225867 L192.356884,89.6225867 C190.905641,92.0296125 189.250021,94.2694057 187.39,96.342 C184.729987,99.3060148 181.728017,100.788 178.384,100.788 C176.103989,100.788 173.786012,99.8380095 171.43,97.938 C169.073988,96.0379905 167.364005,92.7320236 166.3,88.02 C165.691997,88.7800038 164.970004,89.6539951 164.134,90.642 C163.297996,91.6300049 162.234006,92.5419958 160.942,93.378 C159.649994,94.2140042 158.130009,94.935997 156.382,95.544 C154.633991,96.152003 152.468013,96.456 149.884,96.456 C146.387983,96.456 143.538011,95.6200084 141.334,93.948 C139.129989,92.2759916 137.420006,90.2240122 136.204,87.792 C135.748401,86.8808011 135.346146,85.9642731 134.997236,85.042412 C133.230943,87.7659683 131.163214,90.2784775 128.794,92.58 C126.133987,95.1640129 123.132017,96.456 119.788,96.456 C116.899986,96.456 114.202013,95.0500141 111.694,92.238 C109.185987,89.4259859 107.932,85.2840274 107.932,79.812 C107.932,75.8599802 108.539994,71.6040228 109.756,67.044 C110.972006,62.4839772 112.339992,58.1520205 113.86,54.048 C112.187992,57.0880152 110.32601,60.6219799 108.274,64.65 C106.22199,68.6780201 104.24601,72.591981 102.346,76.392 C100.44599,80.192019 98.8120068,83.4979859 97.444,86.31 C96.0759932,89.1220141 95.3160008,90.831997 95.164,91.44 C94.4039962,93.8720122 93.2640076,95.3539973 91.744,95.886 C90.2239924,96.4180027 89.160003,96.684 88.552,96.684 C84.9039818,96.684 82.4340065,95.3160137 81.142,92.58 C79.8499935,89.8439863 79.204,86.1960228 79.204,81.636 C79.204,78.443984 79.507997,75.1380171 80.116,71.718 C80.724003,68.2979829 81.5599947,64.9160167 82.624,61.572 C80.3439886,66.4360243 78.2920091,70.9959787 76.468,75.252 C74.6439909,79.5080213 72.934008,83.1939844 71.338,86.31 C69.741992,89.4260156 68.2220072,91.8959909 66.778,93.72 C65.3339928,95.5440091 63.8520076,96.456 62.332,96.456 C58.8359825,96.456 56.4420065,95.2400122 55.15,92.808 C53.8579935,90.3759878 53.212,86.8040236 53.212,82.092 C53.212,76.3159711 54.009992,70.5020293 55.606,64.65 C57.202008,58.7979707 59.0259897,53.4780239 61.078,48.69 C63.1300103,43.9019761 64.9919916,39.9880152 66.664,36.948 C68.3360084,33.9079848 69.3239985,32.388 69.628,32.388 C70.8440061,32.388 72.2119924,32.691997 73.732,33.3 C75.2520076,33.908003 76.7719924,34.5919962 78.292,35.352 C79.9640084,36.1120038 81.7119909,37.0239947 83.536,38.088 C82.3199939,40.5200122 80.610011,43.5979814 78.406,47.322 C76.201989,51.0460186 74.0360106,55.0359787 71.908,59.292 C69.7799894,63.5480213 67.8800084,67.879978 66.208,72.288 C64.5359916,76.696022 63.7,80.799981 63.7,84.6 C70.8440357,71.5279346 76.8479757,61.192038 81.712,53.592 C86.5760243,45.991962 89.9199909,41.2800091 91.744,39.456 C92.6560046,37.9359924 93.4919962,36.4160076 94.252,34.896 C95.6200068,32.3119871 96.607997,30.0320099 97.216,28.056 C97.3680008,28.056 98.0139943,28.3979966 99.154,29.082 C100.294006,29.7660034 101.471994,30.6779943 102.688,31.818 C103.904006,32.9580057 105.043995,34.1739935 106.108,35.466 C107.172005,36.7580065 107.704,38.0879932 107.704,39.456 C107.704,41.5840106 106.792009,44.3199833 104.968,47.664 C103.143991,51.0080167 101.168011,54.6559802 99.04,58.608 C96.9119894,62.5600198 94.8980095,66.7779776 92.998,71.262 C91.0979905,75.7460224 90.0720008,80.2679772 89.92,84.828 C96.3040319,73.2759422 101.585979,64.4220308 105.766,58.266 C109.946021,52.1099692 113.365987,47.3220171 116.026,43.902 C118.686013,40.4819829 120.737993,37.7840099 122.182,35.808 C123.626007,33.8319901 124.727996,31.248016 125.488,28.056 C125.488,28.056 126.057994,28.3979966 127.198,29.082 C128.338006,29.7660034 129.515994,30.6399947 130.732,31.704 C131.948006,32.7680053 133.087995,33.9459935 134.152,35.238 C135.216005,36.5300065 135.748,37.7839939 135.748,39 C135.748,41.1280106 134.874009,43.9779821 133.126,47.55 C131.377991,51.1220179 129.402011,54.9599795 127.198,59.064 C124.993989,63.1680205 123.018009,67.3479787 121.27,71.604 C119.521991,75.8600213 118.648,79.887981 118.648,83.688 C118.648,85.3600084 118.837998,86.7659943 119.218,87.906 C119.598002,89.0460057 120.395994,89.616 121.612,89.616 C123.740011,89.616 126.399984,88.0580156 129.592,84.942 C130.946752,83.6195044 132.287805,81.9479262 133.615167,79.9272537 L133.615167,79.9272537 C133.213054,77.6112436 133.012,75.5968436 133.012,73.884 C133.012,69.6279787 133.847992,65.1820232 135.52,60.546 C137.192008,55.9099768 139.509985,51.692019 142.474,47.892 C145.438015,44.091981 148.93398,40.9760122 152.962,38.544 C156.99002,36.1119878 161.435976,34.896 166.3,34.896 C169.644017,34.896 172.265991,35.3899951 174.166,36.378 C176.06601,37.3660049 177.851992,38.3919947 179.524,39.456 C179.828002,38.9999977 180.018,38.5060027 180.094,37.974 C180.17,37.4419973 180.283999,37.0240015 180.436,36.72 C180.588001,36.72 181.271994,37.0619966 182.488,37.746 C183.704006,38.4300034 184.995993,39.3419943 186.364,40.482 C187.732007,41.6220057 188.947995,42.8379935 190.012,44.13 C191.076005,45.4220065 191.608,46.7519932 191.608,48.12 C191.608,49.3360061 191.380002,50.5139943 190.924,51.654 C190.467998,52.7940057 189.936003,53.9719939 189.328,55.188 L189.1,55.188 C187.883994,57.4680114 186.554007,59.9379867 185.11,62.598 C183.665993,65.2580133 182.336006,67.9559863 181.12,70.692 C179.903994,73.4280137 178.878004,76.2399856 178.042,79.128 C177.205996,82.0160144 176.788,84.8279863 176.788,87.564 C176.788,92.5800251 177.851989,95.088 179.98,95.088 C182.108011,95.088 184.843983,92.9980209 188.188,88.818 C189.563966,87.0980422 190.888455,85.0113765 192.161472,82.5579897 C192.440765,78.1629078 193.32027,73.0676104 194.8,67.272 C196.624009,60.1279643 198.713988,52.9840357 201.07,45.84 C203.426012,38.6959643 205.781988,32.1600296 208.138,26.232 C210.494012,20.3039704 212.203995,16.2000114 213.268,13.92 C213.420001,13.7679992 213.685998,13.1980049 214.066,12.21 C214.446002,11.2219951 214.863998,10.0440068 215.32,8.676 C215.776002,7.30799316 216.193998,5.8640076 216.574,4.344 C216.954002,2.8239924 217.144,1.53200532 217.144,0.468 C217.448002,0.468 218.283993,0.77199696 219.652,1.38 C221.020007,1.98800304 222.463992,2.78599506 223.984,3.774 C225.504008,4.76200494 226.871994,5.93999316 228.088,7.308 C229.304006,8.67600684 229.912,10.1199924 229.912,11.64 C229.912,12.4000038 229.228007,14.2999848 227.86,17.34 C226.491993,20.3800152 224.78201,24.0279787 222.73,28.284 C220.67799,32.5400213 218.436012,37.2519742 216.004,42.42 C213.571988,47.5880258 211.33001,52.7559742 209.278,57.924 C207.22599,63.0920258 205.478007,67.9939768 204.034,72.63 C202.589993,77.2660232 201.868,81.2559833 201.868,84.6 C206.428023,76.2399582 211.063976,69.05803 215.776,63.054 C220.488024,57.04997 224.743981,52.0720198 228.544,48.12 C232.344019,44.1679802 235.421988,41.2420095 237.778,39.342 C240.134012,37.4419905 241.312,36.492 241.312,36.492 C241.616002,36.6440008 241.995998,36.8719985 242.452,37.176 C243.364005,37.784003 243.82,38.2399985 243.82,38.544 C243.82,38.544 243.136007,39.2279932 241.768,40.596 C240.399993,41.9640068 238.766009,43.749989 236.866,45.954 C234.965991,48.158011 232.99001,50.5899867 230.938,53.25 C228.88599,55.9100133 227.100008,58.5319871 225.58,61.116 C226.188003,66.1320251 228.277982,71.4899715 231.85,77.19 C235.422018,82.8900285 239.411978,88.3999734 243.82,93.72 L245.416,93.72 C247.549138,93.9264327 249.666686,94.1795894 251.768658,94.4794721 L251.768658,94.4794721 C251.504965,94.3128496 251.249413,94.1356923 251.002,93.948 C248.797989,92.2759916 247.088006,90.2240122 245.872,87.792 C244.655994,85.3599878 243.820002,82.8900125 243.364,80.382 C242.907998,77.8739875 242.68,75.7080091 242.68,73.884 C242.68,69.6279787 243.515992,65.1820232 245.188,60.546 C246.860008,55.9099768 249.177985,51.692019 252.142,47.892 C255.106015,44.091981 258.60198,40.9760122 262.63,38.544 C266.65802,36.1119878 271.103976,34.896 275.968,34.896 C279.312017,34.896 281.933991,35.3899951 283.834,36.378 C285.73401,37.3660049 287.519992,38.3919947 289.192,39.456 C289.496002,38.9999977 289.686,38.5060027 289.762,37.974 C289.838,37.4419973 289.951999,37.0240015 290.104,36.72 C290.256001,36.72 290.939994,37.0619966 292.156,37.746 C293.372006,38.4300034 294.663993,39.3419943 296.032,40.482 C297.400007,41.6220057 298.615995,42.8379935 299.68,44.13 C300.744005,45.4220065 301.276,46.7519932 301.276,48.12 C301.276,49.3360061 301.048002,50.5139943 300.592,51.654 C300.135998,52.7940057 299.604003,53.9719939 298.996,55.188 L298.768,55.188 C297.551994,57.4680114 296.222007,59.9379867 294.778,62.598 C293.333993,65.2580133 292.004006,67.9559863 290.788,70.692 C289.571994,73.4280137 288.546004,76.2399856 287.71,79.128 C286.873996,82.0160144 286.456,84.8279863 286.456,87.564 C286.456,92.5800251 287.519989,95.088 289.648,95.088 C291.776011,95.088 294.511983,92.9980209 297.856,88.818 C299.93158,86.2235251 301.890026,82.7946325 303.73136,78.5312765 C303.462452,76.8626718 303.328,75.3135861 303.328,73.884 C303.328,68.7159742 304.163992,63.7380239 305.836,58.95 C307.508008,54.1619761 309.787986,49.868019 312.676,46.068 C315.564014,42.267981 318.831982,39.2280114 322.48,36.948 C326.128018,34.6679886 329.92798,33.528 333.88,33.528 C338.744024,33.528 342.505987,34.8959863 345.166,37.632 C347.826013,40.3680137 349.156,43.331984 349.156,46.524 C349.156,49.716016 348.472007,52.7559856 347.104,55.644 C345.735993,58.5320144 343.874012,61.077989 341.518,63.282 C339.161988,65.486011 336.388016,67.2339935 333.196,68.526 C330.003984,69.8180065 326.660017,70.464 323.164,70.464 C320.731988,70.464 318.680008,70.1980027 317.008,69.666 C315.335992,69.1339973 314.120004,68.4880038 313.36,67.728 C312.447995,70.4640137 311.992,73.1999863 311.992,75.936 C311.992,80.1920213 313.321987,84.0299829 315.982,87.45 C318.642013,90.8700171 322.175978,92.58 326.584,92.58 C329.928017,92.58 333.309983,91.6680091 336.73,89.844 C340.150017,88.0199909 342.84799,86.4240068 344.824,85.056 C347.104011,83.3839916 348.889994,81.9400061 350.182,80.724 C351.474006,79.5079939 352.423997,78.4820042 353.032,77.646 C353.640003,76.8099958 354.057999,76.2020019 354.286,75.822 C354.514001,75.4419981 354.779998,75.252 355.084,75.252 C355.388002,75.252 355.691998,75.3279992 355.996,75.48 C356.300002,75.7840015 356.452,76.0879985 356.452,76.392 C354.171989,80.6480213 351.512015,84.371984 348.472,87.564 C345.887987,90.3000137 342.58202,92.8079886 338.554,95.088 C334.52598,97.3680114 329.852027,98.508 324.532,98.508 C320.57998,98.508 317.236014,97.6720084 314.5,96 C311.763986,94.3279916 309.560008,92.2380125 307.888,89.73 C306.658547,87.8858204 305.696205,85.9389313 305.00096,83.8893006 Z M165.844,83.688 C165.844,78.5199742 166.679992,73.2000274 168.352,67.728 C170.024008,62.2559726 171.695992,57.5440198 173.368,53.592 C171.999993,52.0719924 170.556008,50.8180049 169.036,49.83 C167.515992,48.8419951 165.844009,48.348 164.02,48.348 C161.435987,48.348 158.814013,49.1839916 156.154,50.856 C153.493987,52.5280084 151.024011,54.6939867 148.744,57.354 C146.463989,60.0140133 144.602007,63.0159833 143.158,66.36 C141.713993,69.7040167 140.992,73.0479833 140.992,76.392 C140.992,78.0640084 141.105999,79.7359916 141.334,81.408 C141.562001,83.0800084 142.093996,84.6759924 142.93,86.196 C143.766004,87.7160076 144.905993,88.9319954 146.35,89.844 C147.794007,90.7560046 149.807987,91.212 152.392,91.212 C154.976013,91.212 157.407989,90.5280068 159.688,89.16 C161.968011,87.7919932 164.019991,85.9680114 165.844,83.688 L165.844,83.688 Z M275.056,117.432 C276.424007,118.040003 277.791993,118.344 279.16,118.344 C280.832008,118.344 282.047996,117.964004 282.808,117.204 C283.264002,116.747998 283.643998,116.292002 283.948,115.836 C283.339997,113.251987 281.440016,111.124008 278.248,109.452 C275.055984,107.779992 271.636018,106.488005 267.988,105.576 C263.731979,104.511995 258.868027,103.752002 253.396,103.296 C255.37201,105.728012 257.651987,107.817991 260.236,109.566 C262.820013,111.314009 265.175989,112.795994 267.304,114.012 C269.888013,115.380007 272.471987,116.519995 275.056,117.432 L275.056,117.432 Z M275.512,83.688 C275.512,78.5199742 276.347992,73.2000274 278.02,67.728 C279.692008,62.2559726 281.363992,57.5440198 283.036,53.592 C281.667993,52.0719924 280.224008,50.8180049 278.704,49.83 C277.183992,48.8419951 275.512009,48.348 273.688,48.348 C271.103987,48.348 268.482013,49.1839916 265.822,50.856 C263.161987,52.5280084 260.692011,54.6939867 258.412,57.354 C256.131989,60.0140133 254.270007,63.0159833 252.826,66.36 C251.381993,69.7040167 250.66,73.0479833 250.66,76.392 C250.66,78.0640084 250.773999,79.7359916 251.002,81.408 C251.230001,83.0800084 251.761996,84.6759924 252.598,86.196 C253.434004,87.7160076 254.573993,88.9319954 256.018,89.844 C257.462007,90.7560046 259.475987,91.212 262.06,91.212 C264.644013,91.212 267.075989,90.5280068 269.356,89.16 C271.636011,87.7919932 273.687991,85.9680114 275.512,83.688 L275.512,83.688 Z M319.972,54.276 C317.843989,57.3160152 315.944008,60.6599818 314.272,64.308 C314.728002,64.4600008 315.715992,64.536 317.236,64.536 C319.516011,64.536 321.719989,64.0040053 323.848,62.94 C325.976011,61.8759947 327.837992,60.5840076 329.434,59.064 C331.030008,57.5439924 332.321995,55.9100087 333.31,54.162 C334.298005,52.4139913 334.792,50.9320061 334.792,49.716 C334.792,47.7399901 333.728011,46.752 331.6,46.752 C330.079992,46.752 328.29401,47.3219943 326.242,48.462 C324.18999,49.6020057 322.100011,51.5399863 319.972,54.276 L319.972,54.276 Z" id="makae" fill="#000000" sketch:type="MSShapeGroup"></path>
    </g>
</svg>